<mxfile host="app.diagrams.net" modified="2024-04-18T13:35:38.556Z" agent="Mozilla/5.0 (Windows NT 10.0; Win64; x64) AppleWebKit/537.36 (KHTML, like Gecko) Chrome/123.0.0.0 Safari/537.36" etag="Nz2OM4Vm6lI8So0Qnl07" version="24.2.5" type="device">
  <diagram name="Sida-1" id="wb8zKsZ_rPBBy_9Zil95">
    <mxGraphModel dx="1434" dy="746" grid="1" gridSize="10" guides="1" tooltips="1" connect="1" arrows="1" fold="1" page="1" pageScale="1" pageWidth="1169" pageHeight="827" background="none" math="0" shadow="1">
      <root>
        <mxCell id="0" />
        <mxCell id="1" parent="0" />
        <mxCell id="Vct1IAYqDNCtPzCJUZ2--58" style="edgeStyle=orthogonalEdgeStyle;rounded=0;orthogonalLoop=1;jettySize=auto;html=1;entryX=0.5;entryY=0;entryDx=0;entryDy=0;endArrow=none;endFill=0;" edge="1" parent="1" source="Vct1IAYqDNCtPzCJUZ2--16" target="Vct1IAYqDNCtPzCJUZ2--57">
          <mxGeometry relative="1" as="geometry" />
        </mxCell>
        <mxCell id="Vct1IAYqDNCtPzCJUZ2--16" value="People" style="rounded=1;arcSize=10;whiteSpace=wrap;html=1;align=center;fillColor=#0050ef;fontColor=#ffffff;strokeColor=#001DBC;" vertex="1" parent="1">
          <mxGeometry x="535" y="394" width="100" height="40" as="geometry" />
        </mxCell>
        <mxCell id="Vct1IAYqDNCtPzCJUZ2--17" value="Bus Stations" style="rounded=1;arcSize=0;whiteSpace=wrap;html=1;align=center;fillColor=#0050ef;fontColor=#ffffff;strokeColor=#001DBC;" vertex="1" parent="1">
          <mxGeometry x="730" y="700" width="100" height="40" as="geometry" />
        </mxCell>
        <mxCell id="Vct1IAYqDNCtPzCJUZ2--19" value="Airport" style="rounded=1;arcSize=0;whiteSpace=wrap;html=1;align=center;fillColor=#0050ef;fontColor=#ffffff;strokeColor=#001DBC;" vertex="1" parent="1">
          <mxGeometry x="535" y="700" width="100" height="40" as="geometry" />
        </mxCell>
        <mxCell id="Vct1IAYqDNCtPzCJUZ2--20" value="Train Station" style="rounded=1;arcSize=0;whiteSpace=wrap;html=1;align=center;fillColor=#0050ef;fontColor=#ffffff;strokeColor=#001DBC;" vertex="1" parent="1">
          <mxGeometry x="340" y="700" width="100" height="40" as="geometry" />
        </mxCell>
        <mxCell id="Vct1IAYqDNCtPzCJUZ2--21" value="Ticket" style="rounded=1;arcSize=10;whiteSpace=wrap;html=1;align=center;fillColor=#0050ef;strokeColor=#001DBC;fontColor=#ffffff;" vertex="1" parent="1">
          <mxGeometry x="535" y="200" width="100" height="40" as="geometry" />
        </mxCell>
        <mxCell id="Vct1IAYqDNCtPzCJUZ2--23" style="edgeStyle=orthogonalEdgeStyle;rounded=0;orthogonalLoop=1;jettySize=auto;html=1;endArrow=none;endFill=0;" edge="1" parent="1" source="Vct1IAYqDNCtPzCJUZ2--22" target="Vct1IAYqDNCtPzCJUZ2--21">
          <mxGeometry relative="1" as="geometry" />
        </mxCell>
        <mxCell id="Vct1IAYqDNCtPzCJUZ2--22" value="Price" style="ellipse;whiteSpace=wrap;html=1;align=center;fillColor=#ffff88;strokeColor=#36393d;" vertex="1" parent="1">
          <mxGeometry x="700" y="120" width="100" height="40" as="geometry" />
        </mxCell>
        <mxCell id="Vct1IAYqDNCtPzCJUZ2--28" style="edgeStyle=orthogonalEdgeStyle;rounded=0;orthogonalLoop=1;jettySize=auto;html=1;entryX=0.5;entryY=0;entryDx=0;entryDy=0;endArrow=none;endFill=0;" edge="1" parent="1" source="Vct1IAYqDNCtPzCJUZ2--25" target="Vct1IAYqDNCtPzCJUZ2--21">
          <mxGeometry relative="1" as="geometry" />
        </mxCell>
        <mxCell id="Vct1IAYqDNCtPzCJUZ2--25" value="Destination" style="ellipse;whiteSpace=wrap;html=1;align=center;fillColor=#ffff88;strokeColor=#36393d;" vertex="1" parent="1">
          <mxGeometry x="360" y="120" width="100" height="40" as="geometry" />
        </mxCell>
        <mxCell id="Vct1IAYqDNCtPzCJUZ2--30" style="edgeStyle=orthogonalEdgeStyle;rounded=0;orthogonalLoop=1;jettySize=auto;html=1;endArrow=none;endFill=0;" edge="1" parent="1" source="Vct1IAYqDNCtPzCJUZ2--27">
          <mxGeometry relative="1" as="geometry">
            <mxPoint x="585" y="200" as="targetPoint" />
          </mxGeometry>
        </mxCell>
        <mxCell id="Vct1IAYqDNCtPzCJUZ2--27" value="Number Of" style="ellipse;whiteSpace=wrap;html=1;align=center;fillColor=#ffff88;strokeColor=#36393d;" vertex="1" parent="1">
          <mxGeometry x="535" y="60" width="100" height="40" as="geometry" />
        </mxCell>
        <mxCell id="Vct1IAYqDNCtPzCJUZ2--39" style="edgeStyle=orthogonalEdgeStyle;rounded=0;orthogonalLoop=1;jettySize=auto;html=1;exitX=0.5;exitY=1;exitDx=0;exitDy=0;entryX=0.75;entryY=0;entryDx=0;entryDy=0;" edge="1" parent="1" source="Vct1IAYqDNCtPzCJUZ2--41" target="Vct1IAYqDNCtPzCJUZ2--16">
          <mxGeometry relative="1" as="geometry">
            <mxPoint x="610" y="390" as="targetPoint" />
          </mxGeometry>
        </mxCell>
        <mxCell id="Vct1IAYqDNCtPzCJUZ2--32" value="Buy" style="shape=rhombus;perimeter=rhombusPerimeter;whiteSpace=wrap;html=1;align=center;fillColor=#C3ABD0;fontColor=#000000;strokeColor=#c3abd0;" vertex="1" parent="1">
          <mxGeometry x="525" y="280" width="120" height="60" as="geometry" />
        </mxCell>
        <mxCell id="Vct1IAYqDNCtPzCJUZ2--54" style="edgeStyle=orthogonalEdgeStyle;rounded=0;orthogonalLoop=1;jettySize=auto;html=1;entryX=1;entryY=0.75;entryDx=0;entryDy=0;endArrow=open;endFill=0;" edge="1" parent="1" source="Vct1IAYqDNCtPzCJUZ2--41" target="Vct1IAYqDNCtPzCJUZ2--21">
          <mxGeometry relative="1" as="geometry" />
        </mxCell>
        <mxCell id="Vct1IAYqDNCtPzCJUZ2--41" value="Ownes" style="shape=rhombus;perimeter=rhombusPerimeter;whiteSpace=wrap;html=1;align=center;fillColor=#ffff88;strokeColor=#36393d;" vertex="1" parent="1">
          <mxGeometry x="720" y="280" width="120" height="60" as="geometry" />
        </mxCell>
        <mxCell id="Vct1IAYqDNCtPzCJUZ2--42" value="" style="endArrow=none;html=1;rounded=0;entryX=0.5;entryY=0;entryDx=0;entryDy=0;" edge="1" parent="1" target="Vct1IAYqDNCtPzCJUZ2--32">
          <mxGeometry relative="1" as="geometry">
            <mxPoint x="585" y="240" as="sourcePoint" />
            <mxPoint x="535" y="279.23" as="targetPoint" />
          </mxGeometry>
        </mxCell>
        <mxCell id="Vct1IAYqDNCtPzCJUZ2--45" value="" style="endArrow=none;html=1;rounded=0;entryX=0.488;entryY=0.018;entryDx=0;entryDy=0;entryPerimeter=0;" edge="1" parent="1" target="Vct1IAYqDNCtPzCJUZ2--16">
          <mxGeometry relative="1" as="geometry">
            <mxPoint x="584" y="340" as="sourcePoint" />
            <mxPoint x="584" y="390" as="targetPoint" />
          </mxGeometry>
        </mxCell>
        <mxCell id="Vct1IAYqDNCtPzCJUZ2--49" style="edgeStyle=orthogonalEdgeStyle;rounded=0;orthogonalLoop=1;jettySize=auto;html=1;entryX=1;entryY=0.5;entryDx=0;entryDy=0;endArrow=none;endFill=0;" edge="1" parent="1" source="Vct1IAYqDNCtPzCJUZ2--47" target="Vct1IAYqDNCtPzCJUZ2--16">
          <mxGeometry relative="1" as="geometry" />
        </mxCell>
        <mxCell id="Vct1IAYqDNCtPzCJUZ2--47" value="Funds" style="ellipse;whiteSpace=wrap;html=1;align=center;fillColor=#ffff88;strokeColor=#36393d;" vertex="1" parent="1">
          <mxGeometry x="740" y="394" width="100" height="40" as="geometry" />
        </mxCell>
        <mxCell id="Vct1IAYqDNCtPzCJUZ2--51" style="edgeStyle=orthogonalEdgeStyle;rounded=0;orthogonalLoop=1;jettySize=auto;html=1;entryX=0;entryY=0.5;entryDx=0;entryDy=0;endArrow=none;endFill=0;" edge="1" parent="1" source="Vct1IAYqDNCtPzCJUZ2--50" target="Vct1IAYqDNCtPzCJUZ2--16">
          <mxGeometry relative="1" as="geometry" />
        </mxCell>
        <mxCell id="Vct1IAYqDNCtPzCJUZ2--50" value="Walking Speed" style="ellipse;whiteSpace=wrap;html=1;align=center;fillColor=#ffff88;strokeColor=#36393d;" vertex="1" parent="1">
          <mxGeometry x="350" y="394" width="100" height="40" as="geometry" />
        </mxCell>
        <mxCell id="Vct1IAYqDNCtPzCJUZ2--53" style="edgeStyle=orthogonalEdgeStyle;rounded=0;orthogonalLoop=1;jettySize=auto;html=1;entryX=0.25;entryY=1;entryDx=0;entryDy=0;endArrow=none;endFill=0;" edge="1" parent="1" source="Vct1IAYqDNCtPzCJUZ2--52" target="Vct1IAYqDNCtPzCJUZ2--16">
          <mxGeometry relative="1" as="geometry" />
        </mxCell>
        <mxCell id="Vct1IAYqDNCtPzCJUZ2--52" value="Location" style="ellipse;whiteSpace=wrap;html=1;align=center;fillColor=#ffff88;strokeColor=#36393d;" vertex="1" parent="1">
          <mxGeometry x="350" y="480" width="100" height="40" as="geometry" />
        </mxCell>
        <mxCell id="Vct1IAYqDNCtPzCJUZ2--55" value="Destination" style="ellipse;whiteSpace=wrap;html=1;align=center;fillColor=#ffff88;strokeColor=#36393d;" vertex="1" parent="1">
          <mxGeometry x="690" y="480" width="100" height="40" as="geometry" />
        </mxCell>
        <mxCell id="Vct1IAYqDNCtPzCJUZ2--56" style="edgeStyle=orthogonalEdgeStyle;rounded=0;orthogonalLoop=1;jettySize=auto;html=1;entryX=0.853;entryY=1.004;entryDx=0;entryDy=0;entryPerimeter=0;endArrow=none;endFill=0;" edge="1" parent="1" source="Vct1IAYqDNCtPzCJUZ2--55" target="Vct1IAYqDNCtPzCJUZ2--16">
          <mxGeometry relative="1" as="geometry" />
        </mxCell>
        <mxCell id="Vct1IAYqDNCtPzCJUZ2--86" style="edgeStyle=orthogonalEdgeStyle;rounded=0;orthogonalLoop=1;jettySize=auto;html=1;entryX=0.5;entryY=0;entryDx=0;entryDy=0;endArrow=none;endFill=0;" edge="1" parent="1" source="Vct1IAYqDNCtPzCJUZ2--57" target="Vct1IAYqDNCtPzCJUZ2--20">
          <mxGeometry relative="1" as="geometry" />
        </mxCell>
        <mxCell id="Vct1IAYqDNCtPzCJUZ2--87" style="edgeStyle=orthogonalEdgeStyle;rounded=0;orthogonalLoop=1;jettySize=auto;html=1;entryX=0.5;entryY=0;entryDx=0;entryDy=0;endArrow=none;endFill=0;" edge="1" parent="1" source="Vct1IAYqDNCtPzCJUZ2--57" target="Vct1IAYqDNCtPzCJUZ2--19">
          <mxGeometry relative="1" as="geometry" />
        </mxCell>
        <mxCell id="Vct1IAYqDNCtPzCJUZ2--88" style="edgeStyle=orthogonalEdgeStyle;rounded=0;orthogonalLoop=1;jettySize=auto;html=1;entryX=0.5;entryY=0;entryDx=0;entryDy=0;endArrow=none;endFill=0;" edge="1" parent="1" source="Vct1IAYqDNCtPzCJUZ2--57" target="Vct1IAYqDNCtPzCJUZ2--17">
          <mxGeometry relative="1" as="geometry" />
        </mxCell>
        <mxCell id="Vct1IAYqDNCtPzCJUZ2--57" value="Preferences" style="shape=rhombus;perimeter=rhombusPerimeter;whiteSpace=wrap;html=1;align=center;fillColor=#c3abd0;strokeColor=#c3abd0;" vertex="1" parent="1">
          <mxGeometry x="525" y="560" width="120" height="60" as="geometry" />
        </mxCell>
        <mxCell id="Vct1IAYqDNCtPzCJUZ2--60" style="edgeStyle=orthogonalEdgeStyle;rounded=0;orthogonalLoop=1;jettySize=auto;html=1;entryX=0;entryY=0.25;entryDx=0;entryDy=0;endArrow=none;endFill=0;" edge="1" parent="1" source="Vct1IAYqDNCtPzCJUZ2--59" target="Vct1IAYqDNCtPzCJUZ2--16">
          <mxGeometry relative="1" as="geometry" />
        </mxCell>
        <mxCell id="Vct1IAYqDNCtPzCJUZ2--59" value="Threshold" style="ellipse;whiteSpace=wrap;html=1;align=center;fillColor=#ffff88;strokeColor=#36393d;" vertex="1" parent="1">
          <mxGeometry x="350" y="320" width="100" height="40" as="geometry" />
        </mxCell>
        <mxCell id="Vct1IAYqDNCtPzCJUZ2--96" style="edgeStyle=orthogonalEdgeStyle;rounded=0;orthogonalLoop=1;jettySize=auto;html=1;endArrow=none;endFill=0;" edge="1" parent="1" source="Vct1IAYqDNCtPzCJUZ2--61">
          <mxGeometry relative="1" as="geometry">
            <mxPoint x="390" y="820" as="targetPoint" />
          </mxGeometry>
        </mxCell>
        <mxCell id="Vct1IAYqDNCtPzCJUZ2--61" value="Schedule" style="ellipse;whiteSpace=wrap;html=1;align=center;fillColor=#ffff88;" vertex="1" parent="1">
          <mxGeometry x="180" y="800" width="100" height="40" as="geometry" />
        </mxCell>
        <mxCell id="Vct1IAYqDNCtPzCJUZ2--104" style="edgeStyle=orthogonalEdgeStyle;rounded=0;orthogonalLoop=1;jettySize=auto;html=1;entryX=0.5;entryY=1;entryDx=0;entryDy=0;endArrow=none;endFill=0;" edge="1" parent="1" source="Vct1IAYqDNCtPzCJUZ2--63" target="Vct1IAYqDNCtPzCJUZ2--19">
          <mxGeometry relative="1" as="geometry" />
        </mxCell>
        <mxCell id="Vct1IAYqDNCtPzCJUZ2--63" value="Schedule" style="ellipse;whiteSpace=wrap;html=1;align=center;fillColor=#ffff88;" vertex="1" parent="1">
          <mxGeometry x="535" y="810" width="100" height="40" as="geometry" />
        </mxCell>
        <mxCell id="Vct1IAYqDNCtPzCJUZ2--113" style="edgeStyle=orthogonalEdgeStyle;rounded=0;orthogonalLoop=1;jettySize=auto;html=1;entryX=0.5;entryY=1;entryDx=0;entryDy=0;endArrow=none;endFill=0;" edge="1" parent="1" source="Vct1IAYqDNCtPzCJUZ2--64" target="Vct1IAYqDNCtPzCJUZ2--17">
          <mxGeometry relative="1" as="geometry" />
        </mxCell>
        <mxCell id="Vct1IAYqDNCtPzCJUZ2--64" value="Schedule" style="ellipse;whiteSpace=wrap;html=1;align=center;fillColor=#ffff88;" vertex="1" parent="1">
          <mxGeometry x="840" y="800" width="100" height="40" as="geometry" />
        </mxCell>
        <mxCell id="Vct1IAYqDNCtPzCJUZ2--97" style="edgeStyle=orthogonalEdgeStyle;rounded=0;orthogonalLoop=1;jettySize=auto;html=1;endArrow=none;endFill=0;" edge="1" parent="1" source="Vct1IAYqDNCtPzCJUZ2--65">
          <mxGeometry relative="1" as="geometry">
            <mxPoint x="390" y="900" as="targetPoint" />
          </mxGeometry>
        </mxCell>
        <mxCell id="Vct1IAYqDNCtPzCJUZ2--65" value="Location" style="ellipse;whiteSpace=wrap;html=1;align=center;fillColor=#ffff88;" vertex="1" parent="1">
          <mxGeometry x="180" y="880" width="100" height="40" as="geometry" />
        </mxCell>
        <mxCell id="Vct1IAYqDNCtPzCJUZ2--114" style="edgeStyle=orthogonalEdgeStyle;rounded=0;orthogonalLoop=1;jettySize=auto;html=1;endArrow=none;endFill=0;" edge="1" parent="1" source="Vct1IAYqDNCtPzCJUZ2--66">
          <mxGeometry relative="1" as="geometry">
            <mxPoint x="779.9999999999998" y="820" as="targetPoint" />
          </mxGeometry>
        </mxCell>
        <mxCell id="Vct1IAYqDNCtPzCJUZ2--66" value="Location" style="ellipse;whiteSpace=wrap;html=1;align=center;fillColor=#ffff88;" vertex="1" parent="1">
          <mxGeometry x="840" y="880" width="100" height="40" as="geometry" />
        </mxCell>
        <mxCell id="Vct1IAYqDNCtPzCJUZ2--105" style="edgeStyle=orthogonalEdgeStyle;rounded=0;orthogonalLoop=1;jettySize=auto;html=1;endArrow=none;endFill=0;" edge="1" parent="1" source="Vct1IAYqDNCtPzCJUZ2--67">
          <mxGeometry relative="1" as="geometry">
            <mxPoint x="660" y="780" as="targetPoint" />
          </mxGeometry>
        </mxCell>
        <mxCell id="Vct1IAYqDNCtPzCJUZ2--67" value="Location" style="ellipse;whiteSpace=wrap;html=1;align=center;fillColor=#ffff88;" vertex="1" parent="1">
          <mxGeometry x="534" y="880" width="100" height="40" as="geometry" />
        </mxCell>
        <mxCell id="Vct1IAYqDNCtPzCJUZ2--92" style="edgeStyle=orthogonalEdgeStyle;rounded=0;orthogonalLoop=1;jettySize=auto;html=1;entryX=0.5;entryY=1;entryDx=0;entryDy=0;endArrow=none;endFill=0;" edge="1" parent="1" source="Vct1IAYqDNCtPzCJUZ2--68" target="Vct1IAYqDNCtPzCJUZ2--20">
          <mxGeometry relative="1" as="geometry" />
        </mxCell>
        <mxCell id="Vct1IAYqDNCtPzCJUZ2--68" value="Price" style="ellipse;whiteSpace=wrap;html=1;align=center;fillColor=#ffff88;" vertex="1" parent="1">
          <mxGeometry x="180" y="960" width="100" height="40" as="geometry" />
        </mxCell>
        <mxCell id="Vct1IAYqDNCtPzCJUZ2--115" style="edgeStyle=orthogonalEdgeStyle;rounded=0;orthogonalLoop=1;jettySize=auto;html=1;endArrow=none;endFill=0;" edge="1" parent="1" source="Vct1IAYqDNCtPzCJUZ2--69">
          <mxGeometry relative="1" as="geometry">
            <mxPoint x="779.9999999999998" y="899.9999999999998" as="targetPoint" />
          </mxGeometry>
        </mxCell>
        <mxCell id="Vct1IAYqDNCtPzCJUZ2--69" value="Price" style="ellipse;whiteSpace=wrap;html=1;align=center;fillColor=#ffff88;" vertex="1" parent="1">
          <mxGeometry x="840" y="960" width="100" height="40" as="geometry" />
        </mxCell>
        <mxCell id="Vct1IAYqDNCtPzCJUZ2--107" style="edgeStyle=orthogonalEdgeStyle;rounded=0;orthogonalLoop=1;jettySize=auto;html=1;endArrow=none;endFill=0;" edge="1" parent="1" source="Vct1IAYqDNCtPzCJUZ2--70">
          <mxGeometry relative="1" as="geometry">
            <mxPoint x="660" y="900" as="targetPoint" />
          </mxGeometry>
        </mxCell>
        <mxCell id="Vct1IAYqDNCtPzCJUZ2--70" value="Price" style="ellipse;whiteSpace=wrap;html=1;align=center;fillColor=#ffff88;" vertex="1" parent="1">
          <mxGeometry x="534" y="960" width="100" height="40" as="geometry" />
        </mxCell>
        <mxCell id="Vct1IAYqDNCtPzCJUZ2--116" style="edgeStyle=orthogonalEdgeStyle;rounded=0;orthogonalLoop=1;jettySize=auto;html=1;endArrow=none;endFill=0;" edge="1" parent="1" source="Vct1IAYqDNCtPzCJUZ2--71">
          <mxGeometry relative="1" as="geometry">
            <mxPoint x="779.9999999999998" y="979.9999999999998" as="targetPoint" />
          </mxGeometry>
        </mxCell>
        <mxCell id="Vct1IAYqDNCtPzCJUZ2--71" value="Available" style="ellipse;whiteSpace=wrap;html=1;align=center;fillColor=#ffff88;" vertex="1" parent="1">
          <mxGeometry x="840" y="1040" width="100" height="40" as="geometry" />
        </mxCell>
        <mxCell id="Vct1IAYqDNCtPzCJUZ2--108" style="edgeStyle=orthogonalEdgeStyle;rounded=0;orthogonalLoop=1;jettySize=auto;html=1;endArrow=none;endFill=0;" edge="1" parent="1" source="Vct1IAYqDNCtPzCJUZ2--72">
          <mxGeometry relative="1" as="geometry">
            <mxPoint x="660" y="980" as="targetPoint" />
          </mxGeometry>
        </mxCell>
        <mxCell id="Vct1IAYqDNCtPzCJUZ2--72" value="Available" style="ellipse;whiteSpace=wrap;html=1;align=center;fillColor=#ffff88;" vertex="1" parent="1">
          <mxGeometry x="535" y="1040" width="100" height="40" as="geometry" />
        </mxCell>
        <mxCell id="Vct1IAYqDNCtPzCJUZ2--98" style="edgeStyle=orthogonalEdgeStyle;rounded=0;orthogonalLoop=1;jettySize=auto;html=1;endArrow=none;endFill=0;" edge="1" parent="1" source="Vct1IAYqDNCtPzCJUZ2--73">
          <mxGeometry relative="1" as="geometry">
            <mxPoint x="390" y="980" as="targetPoint" />
          </mxGeometry>
        </mxCell>
        <mxCell id="Vct1IAYqDNCtPzCJUZ2--73" value="Available" style="ellipse;whiteSpace=wrap;html=1;align=center;fillColor=#ffff88;" vertex="1" parent="1">
          <mxGeometry x="180" y="1040" width="100" height="40" as="geometry" />
        </mxCell>
        <mxCell id="Vct1IAYqDNCtPzCJUZ2--99" style="edgeStyle=orthogonalEdgeStyle;rounded=0;orthogonalLoop=1;jettySize=auto;html=1;endArrow=none;endFill=0;" edge="1" parent="1" source="Vct1IAYqDNCtPzCJUZ2--74">
          <mxGeometry relative="1" as="geometry">
            <mxPoint x="390" y="1060" as="targetPoint" />
          </mxGeometry>
        </mxCell>
        <mxCell id="Vct1IAYqDNCtPzCJUZ2--74" value="Destination" style="ellipse;whiteSpace=wrap;html=1;align=center;fillColor=#ffff88;" vertex="1" parent="1">
          <mxGeometry x="180" y="1120" width="100" height="40" as="geometry" />
        </mxCell>
        <mxCell id="Vct1IAYqDNCtPzCJUZ2--117" style="edgeStyle=orthogonalEdgeStyle;rounded=0;orthogonalLoop=1;jettySize=auto;html=1;endArrow=none;endFill=0;" edge="1" parent="1" source="Vct1IAYqDNCtPzCJUZ2--75">
          <mxGeometry relative="1" as="geometry">
            <mxPoint x="779.9999999999998" y="1059.9999999999998" as="targetPoint" />
          </mxGeometry>
        </mxCell>
        <mxCell id="Vct1IAYqDNCtPzCJUZ2--75" value="Destination" style="ellipse;whiteSpace=wrap;html=1;align=center;fillColor=#ffff88;" vertex="1" parent="1">
          <mxGeometry x="840" y="1120" width="100" height="40" as="geometry" />
        </mxCell>
        <mxCell id="Vct1IAYqDNCtPzCJUZ2--109" style="edgeStyle=orthogonalEdgeStyle;rounded=0;orthogonalLoop=1;jettySize=auto;html=1;endArrow=none;endFill=0;" edge="1" parent="1" source="Vct1IAYqDNCtPzCJUZ2--76">
          <mxGeometry relative="1" as="geometry">
            <mxPoint x="660" y="1060" as="targetPoint" />
          </mxGeometry>
        </mxCell>
        <mxCell id="Vct1IAYqDNCtPzCJUZ2--76" value="Destination" style="ellipse;whiteSpace=wrap;html=1;align=center;fillColor=#ffff88;" vertex="1" parent="1">
          <mxGeometry x="535" y="1120" width="100" height="40" as="geometry" />
        </mxCell>
        <mxCell id="Vct1IAYqDNCtPzCJUZ2--100" style="edgeStyle=orthogonalEdgeStyle;rounded=0;orthogonalLoop=1;jettySize=auto;html=1;endArrow=none;endFill=0;" edge="1" parent="1" source="Vct1IAYqDNCtPzCJUZ2--77">
          <mxGeometry relative="1" as="geometry">
            <mxPoint x="390" y="1140" as="targetPoint" />
          </mxGeometry>
        </mxCell>
        <mxCell id="Vct1IAYqDNCtPzCJUZ2--77" value="Time of&amp;nbsp;&lt;div&gt;Departur&lt;/div&gt;" style="ellipse;whiteSpace=wrap;html=1;align=center;fillColor=#ffff88;" vertex="1" parent="1">
          <mxGeometry x="180" y="1200" width="100" height="40" as="geometry" />
        </mxCell>
        <mxCell id="Vct1IAYqDNCtPzCJUZ2--118" style="edgeStyle=orthogonalEdgeStyle;rounded=0;orthogonalLoop=1;jettySize=auto;html=1;endArrow=none;endFill=0;" edge="1" parent="1" source="Vct1IAYqDNCtPzCJUZ2--78">
          <mxGeometry relative="1" as="geometry">
            <mxPoint x="779.9999999999998" y="1139.9999999999998" as="targetPoint" />
          </mxGeometry>
        </mxCell>
        <mxCell id="Vct1IAYqDNCtPzCJUZ2--78" value="Time of&amp;nbsp;&lt;div&gt;Departur&lt;/div&gt;" style="ellipse;whiteSpace=wrap;html=1;align=center;fillColor=#ffff88;" vertex="1" parent="1">
          <mxGeometry x="840" y="1200" width="100" height="40" as="geometry" />
        </mxCell>
        <mxCell id="Vct1IAYqDNCtPzCJUZ2--110" style="edgeStyle=orthogonalEdgeStyle;rounded=0;orthogonalLoop=1;jettySize=auto;html=1;endArrow=none;endFill=0;" edge="1" parent="1" source="Vct1IAYqDNCtPzCJUZ2--79">
          <mxGeometry relative="1" as="geometry">
            <mxPoint x="660" y="1140" as="targetPoint" />
          </mxGeometry>
        </mxCell>
        <mxCell id="Vct1IAYqDNCtPzCJUZ2--79" value="Time of&amp;nbsp;&lt;div&gt;Departur&lt;/div&gt;" style="ellipse;whiteSpace=wrap;html=1;align=center;fillColor=#ffff88;" vertex="1" parent="1">
          <mxGeometry x="534" y="1200" width="100" height="40" as="geometry" />
        </mxCell>
        <mxCell id="Vct1IAYqDNCtPzCJUZ2--101" style="edgeStyle=orthogonalEdgeStyle;rounded=0;orthogonalLoop=1;jettySize=auto;html=1;endArrow=none;endFill=0;" edge="1" parent="1" source="Vct1IAYqDNCtPzCJUZ2--80">
          <mxGeometry relative="1" as="geometry">
            <mxPoint x="390" y="1220" as="targetPoint" />
          </mxGeometry>
        </mxCell>
        <mxCell id="Vct1IAYqDNCtPzCJUZ2--80" value="Time of&amp;nbsp;&lt;div&gt;Arrival&lt;/div&gt;" style="ellipse;whiteSpace=wrap;html=1;align=center;fillColor=#ffff88;" vertex="1" parent="1">
          <mxGeometry x="180" y="1280" width="100" height="40" as="geometry" />
        </mxCell>
        <mxCell id="Vct1IAYqDNCtPzCJUZ2--119" style="edgeStyle=orthogonalEdgeStyle;rounded=0;orthogonalLoop=1;jettySize=auto;html=1;endArrow=none;endFill=0;" edge="1" parent="1" source="Vct1IAYqDNCtPzCJUZ2--81">
          <mxGeometry relative="1" as="geometry">
            <mxPoint x="779.9999999999998" y="1219.9999999999998" as="targetPoint" />
          </mxGeometry>
        </mxCell>
        <mxCell id="Vct1IAYqDNCtPzCJUZ2--81" value="Time of&amp;nbsp;&lt;div&gt;Arrival&lt;/div&gt;" style="ellipse;whiteSpace=wrap;html=1;align=center;fillColor=#ffff88;" vertex="1" parent="1">
          <mxGeometry x="840" y="1280" width="100" height="40" as="geometry" />
        </mxCell>
        <mxCell id="Vct1IAYqDNCtPzCJUZ2--111" style="edgeStyle=orthogonalEdgeStyle;rounded=0;orthogonalLoop=1;jettySize=auto;html=1;endArrow=none;endFill=0;" edge="1" parent="1" source="Vct1IAYqDNCtPzCJUZ2--82">
          <mxGeometry relative="1" as="geometry">
            <mxPoint x="660" y="1220" as="targetPoint" />
          </mxGeometry>
        </mxCell>
        <mxCell id="Vct1IAYqDNCtPzCJUZ2--82" value="Time of&amp;nbsp;&lt;div&gt;Arrival&lt;/div&gt;" style="ellipse;whiteSpace=wrap;html=1;align=center;fillColor=#ffff88;" vertex="1" parent="1">
          <mxGeometry x="534" y="1280" width="100" height="40" as="geometry" />
        </mxCell>
        <mxCell id="Vct1IAYqDNCtPzCJUZ2--102" style="edgeStyle=orthogonalEdgeStyle;rounded=0;orthogonalLoop=1;jettySize=auto;html=1;endArrow=none;endFill=0;" edge="1" parent="1" source="Vct1IAYqDNCtPzCJUZ2--83">
          <mxGeometry relative="1" as="geometry">
            <mxPoint x="390" y="1300" as="targetPoint" />
          </mxGeometry>
        </mxCell>
        <mxCell id="Vct1IAYqDNCtPzCJUZ2--83" value="Time of&amp;nbsp;&lt;div&gt;Travel&lt;/div&gt;" style="ellipse;whiteSpace=wrap;html=1;align=center;fillColor=#ffff88;" vertex="1" parent="1">
          <mxGeometry x="180" y="1360" width="100" height="40" as="geometry" />
        </mxCell>
        <mxCell id="Vct1IAYqDNCtPzCJUZ2--120" style="edgeStyle=orthogonalEdgeStyle;rounded=0;orthogonalLoop=1;jettySize=auto;html=1;endArrow=none;endFill=0;" edge="1" parent="1" source="Vct1IAYqDNCtPzCJUZ2--84">
          <mxGeometry relative="1" as="geometry">
            <mxPoint x="779.9999999999998" y="1299.9999999999998" as="targetPoint" />
          </mxGeometry>
        </mxCell>
        <mxCell id="Vct1IAYqDNCtPzCJUZ2--84" value="Time of&amp;nbsp;&lt;div&gt;Travel&lt;/div&gt;" style="ellipse;whiteSpace=wrap;html=1;align=center;fillColor=#ffff88;" vertex="1" parent="1">
          <mxGeometry x="840" y="1360" width="100" height="40" as="geometry" />
        </mxCell>
        <mxCell id="Vct1IAYqDNCtPzCJUZ2--112" style="edgeStyle=orthogonalEdgeStyle;rounded=0;orthogonalLoop=1;jettySize=auto;html=1;endArrow=none;endFill=0;" edge="1" parent="1" source="Vct1IAYqDNCtPzCJUZ2--85">
          <mxGeometry relative="1" as="geometry">
            <mxPoint x="660" y="1300" as="targetPoint" />
          </mxGeometry>
        </mxCell>
        <mxCell id="Vct1IAYqDNCtPzCJUZ2--85" value="Time of&amp;nbsp;&lt;div&gt;Travel&lt;/div&gt;" style="ellipse;whiteSpace=wrap;html=1;align=center;fillColor=#ffff88;" vertex="1" parent="1">
          <mxGeometry x="535" y="1360" width="100" height="40" as="geometry" />
        </mxCell>
        <mxCell id="Vct1IAYqDNCtPzCJUZ2--106" style="edgeStyle=orthogonalEdgeStyle;rounded=0;orthogonalLoop=1;jettySize=auto;html=1;endArrow=none;endFill=0;entryX=0.5;entryY=1;entryDx=0;entryDy=0;" edge="1" parent="1" target="Vct1IAYqDNCtPzCJUZ2--19">
          <mxGeometry relative="1" as="geometry">
            <mxPoint x="590" y="780" as="targetPoint" />
            <mxPoint x="660" y="780" as="sourcePoint" />
          </mxGeometry>
        </mxCell>
        <mxCell id="Vct1IAYqDNCtPzCJUZ2--123" style="edgeStyle=orthogonalEdgeStyle;rounded=0;orthogonalLoop=1;jettySize=auto;html=1;entryX=0;entryY=0.5;entryDx=0;entryDy=0;endArrow=none;endFill=0;" edge="1" parent="1" source="Vct1IAYqDNCtPzCJUZ2--122" target="Vct1IAYqDNCtPzCJUZ2--21">
          <mxGeometry relative="1" as="geometry" />
        </mxCell>
        <mxCell id="Vct1IAYqDNCtPzCJUZ2--122" value="Ticket Id" style="ellipse;whiteSpace=wrap;html=1;align=center;fontStyle=4;fillColor=#ffff88;strokeColor=#36393d;" vertex="1" parent="1">
          <mxGeometry x="360" y="200" width="100" height="40" as="geometry" />
        </mxCell>
        <mxCell id="Vct1IAYqDNCtPzCJUZ2--129" style="edgeStyle=orthogonalEdgeStyle;rounded=0;orthogonalLoop=1;jettySize=auto;html=1;entryX=0;entryY=0.75;entryDx=0;entryDy=0;endArrow=none;endFill=0;" edge="1" parent="1" source="Vct1IAYqDNCtPzCJUZ2--124" target="Vct1IAYqDNCtPzCJUZ2--20">
          <mxGeometry relative="1" as="geometry" />
        </mxCell>
        <mxCell id="Vct1IAYqDNCtPzCJUZ2--124" value="&lt;u&gt;Id&lt;/u&gt;" style="ellipse;whiteSpace=wrap;html=1;align=center;fillColor=#ffff88;" vertex="1" parent="1">
          <mxGeometry x="180" y="730" width="100" height="40" as="geometry" />
        </mxCell>
        <mxCell id="Vct1IAYqDNCtPzCJUZ2--131" style="edgeStyle=orthogonalEdgeStyle;rounded=0;orthogonalLoop=1;jettySize=auto;html=1;endArrow=none;endFill=0;" edge="1" parent="1" source="Vct1IAYqDNCtPzCJUZ2--125">
          <mxGeometry relative="1" as="geometry">
            <mxPoint x="590" y="780" as="targetPoint" />
            <Array as="points">
              <mxPoint x="475" y="780" />
              <mxPoint x="580" y="780" />
            </Array>
          </mxGeometry>
        </mxCell>
        <mxCell id="Vct1IAYqDNCtPzCJUZ2--125" value="&lt;u&gt;Id&lt;/u&gt;" style="ellipse;whiteSpace=wrap;html=1;align=center;fillColor=#ffff88;" vertex="1" parent="1">
          <mxGeometry x="425" y="810" width="100" height="40" as="geometry" />
        </mxCell>
        <mxCell id="Vct1IAYqDNCtPzCJUZ2--128" style="edgeStyle=orthogonalEdgeStyle;rounded=0;orthogonalLoop=1;jettySize=auto;html=1;endArrow=none;endFill=0;" edge="1" parent="1" source="Vct1IAYqDNCtPzCJUZ2--126">
          <mxGeometry relative="1" as="geometry">
            <mxPoint x="780" y="750" as="targetPoint" />
          </mxGeometry>
        </mxCell>
        <mxCell id="Vct1IAYqDNCtPzCJUZ2--126" value="&lt;u&gt;Id&lt;/u&gt;" style="ellipse;whiteSpace=wrap;html=1;align=center;fillColor=#ffff88;" vertex="1" parent="1">
          <mxGeometry x="840" y="730" width="100" height="40" as="geometry" />
        </mxCell>
      </root>
    </mxGraphModel>
  </diagram>
</mxfile>
